<svg width="24" height="24" viewBox="0 0 24 24" fill="none" xmlns="http://www.w3.org/2000/svg">
<path fill-rule="evenodd" clip-rule="evenodd" d="M7.8637 2.10711C6.79677 1.82123 5.7001 2.45439 5.41421 3.52133L2.10697 15.8641C1.82109 16.931 2.45426 18.0277 3.52119 18.3136L15.864 21.6208C16.9309 21.9067 18.0276 21.2736 18.3135 20.2066L21.6207 7.86384C21.9066 6.79691 21.2734 5.70023 20.2065 5.41435L7.8637 2.10711ZM8.99996 10C10.1045 10 11 9.10457 11 8C11 6.89543 10.1045 6 8.99996 6C7.89539 6 6.99996 6.89543 6.99996 8C6.99996 9.10457 7.89539 10 8.99996 10ZM17 16C17 17.1046 16.1045 18 15 18C13.8954 18 13 17.1046 13 16C13 14.8954 13.8954 14 15 14C16.1045 14 17 14.8954 17 16ZM17.3753 7.48246C16.8401 6.84369 15.8883 6.75977 15.2495 7.29504L7.15658 14.0766C6.5178 14.6118 6.43389 15.5636 6.96916 16.2024C7.50443 16.8411 8.45618 16.9251 9.09496 16.3898L17.1879 9.60826C17.8267 9.073 17.9106 8.12124 17.3753 7.48246Z" fill="url(#paint0_linear_23_2)"/>
<path fill-rule="evenodd" clip-rule="evenodd" d="M13.2782 1.41422C12.4972 0.633168 11.2309 0.633168 10.4498 1.41422L1.41428 10.4498C0.633229 11.2308 0.633229 12.4971 1.41428 13.2782L10.4498 22.3137C11.2309 23.0948 12.4972 23.0948 13.2782 22.3137L22.3138 13.2782C23.0948 12.4971 23.0948 11.2308 22.3138 10.4498L13.2782 1.41422ZM9.00001 10C10.1046 10 11 9.10457 11 8C11 6.89543 10.1046 6 9.00001 6C7.89544 6 7.00001 6.89543 7.00001 8C7.00001 9.10457 7.89544 10 9.00001 10ZM17 16C17 17.1046 16.1046 18 15 18C13.8954 18 13 17.1046 13 16C13 14.8954 13.8954 14 15 14C16.1046 14 17 14.8954 17 16ZM17.3754 7.48247C16.8401 6.84369 15.8884 6.75978 15.2496 7.29505L7.15663 14.0766C6.51786 14.6118 6.43394 15.5636 6.96921 16.2024C7.50448 16.8411 8.45623 16.9251 9.09501 16.3898L17.188 9.60827C17.8267 9.073 17.9106 8.12125 17.3754 7.48247Z" fill="url(#paint1_linear_23_2)"/>
<path fill-rule="evenodd" clip-rule="evenodd" d="M18.3137 3.52131C18.0278 2.45438 16.9311 1.82121 15.8642 2.1071L3.52143 5.41434C2.4545 5.70022 1.82134 6.79689 2.10722 7.86382L5.41446 20.2066C5.70034 21.2735 6.79701 21.9067 7.86395 21.6208L20.2067 18.3136C21.2737 18.0277 21.9068 16.931 21.6209 15.8641L18.3137 3.52131ZM9.00004 10C10.1046 10 11 9.10457 11 8C11 6.89543 10.1046 6 9.00004 6C7.89547 6 7.00004 6.89543 7.00004 8C7.00004 9.10457 7.89547 10 9.00004 10ZM17 16C17 17.1046 16.1046 18 15 18C13.8955 18 13 17.1046 13 16C13 14.8954 13.8955 14 15 14C16.1046 14 17 14.8954 17 16ZM17.3754 7.48246C16.8401 6.84369 15.8884 6.75977 15.2496 7.29504L7.15666 14.0766C6.51788 14.6118 6.43397 15.5636 6.96923 16.2024C7.5045 16.8411 8.45626 16.9251 9.09504 16.3898L17.188 9.60826C17.8268 9.073 17.9107 8.12124 17.3754 7.48246Z" fill="url(#paint2_linear_23_2)"/>
<defs>
<linearGradient id="paint0_linear_23_2" x1="20.4432" y1="6.64298" x2="3.97174" y2="18.2175" gradientUnits="userSpaceOnUse">
<stop stop-color="#0976C6"/>
<stop offset="1" stop-color="#D74DB9"/>
</linearGradient>
<linearGradient id="paint1_linear_23_2" x1="21.5" y1="6" x2="3" y2="19" gradientUnits="userSpaceOnUse">
<stop stop-color="#0976C6"/>
<stop offset="1" stop-color="#D74DB9"/>
</linearGradient>
<linearGradient id="paint2_linear_23_2" x1="20.4435" y1="6.64296" x2="3.97198" y2="18.2175" gradientUnits="userSpaceOnUse">
<stop stop-color="#0976C6"/>
<stop offset="1" stop-color="#D74DB9"/>
</linearGradient>
</defs>
</svg>
