<svg width="32" height="32" viewBox="0 0 32 32" fill="none" xmlns="http://www.w3.org/2000/svg">
<path d="M4.08331 5.5C3.8402 5.5 3.60704 5.57902 3.43513 5.71967C3.26322 5.86032 3.16665 6.05109 3.16665 6.25V10.75C3.16665 10.9489 3.07007 11.1397 2.89816 11.2803C2.72625 11.421 2.49309 11.5 2.24998 11.5C2.00686 11.5 1.77371 11.421 1.6018 11.2803C1.42989 11.1397 1.33331 10.9489 1.33331 10.75V6.25C1.33331 5.65326 1.62304 5.08097 2.13877 4.65901C2.65449 4.23705 3.35397 4 4.08331 4H9.58331C9.82643 4 10.0596 4.07902 10.2315 4.21967C10.4034 4.36032 10.5 4.55109 10.5 4.75C10.5 4.94891 10.4034 5.13968 10.2315 5.28033C10.0596 5.42098 9.82643 5.5 9.58331 5.5H4.08331ZM21.5 4.75C21.5 4.55109 21.5966 4.36032 21.7685 4.21967C21.9404 4.07902 22.1735 4 22.4166 4H27.9166C28.646 4 29.3455 4.23705 29.8612 4.65901C30.3769 5.08097 30.6666 5.65326 30.6666 6.25V10.75C30.6666 10.9489 30.5701 11.1397 30.3982 11.2803C30.2263 11.421 29.9931 11.5 29.75 11.5C29.5069 11.5 29.2737 11.421 29.1018 11.2803C28.9299 11.1397 28.8333 10.9489 28.8333 10.75V6.25C28.8333 6.05109 28.7367 5.86032 28.5648 5.71967C28.3929 5.57902 28.1598 5.5 27.9166 5.5H22.4166C22.1735 5.5 21.9404 5.42098 21.7685 5.28033C21.5966 5.13968 21.5 4.94891 21.5 4.75ZM2.24998 20.5C2.49309 20.5 2.72625 20.579 2.89816 20.7197C3.07007 20.8603 3.16665 21.0511 3.16665 21.25V25.75C3.16665 25.9489 3.26322 26.1397 3.43513 26.2803C3.60704 26.421 3.8402 26.5 4.08331 26.5H9.58331C9.82643 26.5 10.0596 26.579 10.2315 26.7197C10.4034 26.8603 10.5 27.0511 10.5 27.25C10.5 27.4489 10.4034 27.6397 10.2315 27.7803C10.0596 27.921 9.82643 28 9.58331 28H4.08331C3.35397 28 2.65449 27.7629 2.13877 27.341C1.62304 26.919 1.33331 26.3467 1.33331 25.75L1.33331 21.25C1.33331 21.0511 1.42989 20.8603 1.6018 20.7197C1.77371 20.579 2.00686 20.5 2.24998 20.5ZM29.75 20.5C29.9931 20.5 30.2263 20.579 30.3982 20.7197C30.5701 20.8603 30.6666 21.0511 30.6666 21.25V25.75C30.6666 26.3467 30.3769 26.919 29.8612 27.341C29.3455 27.7629 28.646 28 27.9166 28H22.4166C22.1735 28 21.9404 27.921 21.7685 27.7803C21.5966 27.6397 21.5 27.4489 21.5 27.25C21.5 27.0511 21.5966 26.8603 21.7685 26.7197C21.9404 26.579 22.1735 26.5 22.4166 26.5H27.9166C28.1598 26.5 28.3929 26.421 28.5648 26.2803C28.7367 26.1397 28.8333 25.9489 28.8333 25.75V21.25C28.8333 21.0511 28.9299 20.8603 29.1018 20.7197C29.2737 20.579 29.5069 20.5 29.75 20.5ZM6.83331 10.75C6.83331 10.5511 6.92989 10.3603 7.1018 10.2197C7.27371 10.079 7.50686 10 7.74998 10C7.99309 10 8.22625 10.079 8.39816 10.2197C8.57007 10.3603 8.66665 10.5511 8.66665 10.75V21.25C8.66665 21.4489 8.57007 21.6397 8.39816 21.7803C8.22625 21.921 7.99309 22 7.74998 22C7.50686 22 7.27371 21.921 7.1018 21.7803C6.92989 21.6397 6.83331 21.4489 6.83331 21.25V10.75ZM10.5 10.75C10.5 10.5511 10.5966 10.3603 10.7685 10.2197C10.9404 10.079 11.1735 10 11.4166 10C11.6598 10 11.8929 10.079 12.0648 10.2197C12.2367 10.3603 12.3333 10.5511 12.3333 10.75V21.25C12.3333 21.4489 12.2367 21.6397 12.0648 21.7803C11.8929 21.921 11.6598 22 11.4166 22C11.1735 22 10.9404 21.921 10.7685 21.7803C10.5966 21.6397 10.5 21.4489 10.5 21.25V10.75ZM14.1666 10.75C14.1666 10.5511 14.2632 10.3603 14.4351 10.2197C14.607 10.079 14.8402 10 15.0833 10C15.3264 10 15.5596 10.079 15.7315 10.2197C15.9034 10.3603 16 10.5511 16 10.75V21.25C16 21.4489 15.9034 21.6397 15.7315 21.7803C15.5596 21.921 15.3264 22 15.0833 22C14.8402 22 14.607 21.921 14.4351 21.7803C14.2632 21.6397 14.1666 21.4489 14.1666 21.25V10.75ZM17.8333 10.75C17.8333 10.5511 17.9299 10.3603 18.1018 10.2197C18.2737 10.079 18.5069 10 18.75 10H20.5833C20.8264 10 21.0596 10.079 21.2315 10.2197C21.4034 10.3603 21.5 10.5511 21.5 10.75V21.25C21.5 21.4489 21.4034 21.6397 21.2315 21.7803C21.0596 21.921 20.8264 22 20.5833 22H18.75C18.5069 22 18.2737 21.921 18.1018 21.7803C17.9299 21.6397 17.8333 21.4489 17.8333 21.25V10.75ZM23.3333 10.75C23.3333 10.5511 23.4299 10.3603 23.6018 10.2197C23.7737 10.079 24.0069 10 24.25 10C24.4931 10 24.7263 10.079 24.8982 10.2197C25.0701 10.3603 25.1666 10.5511 25.1666 10.75V21.25C25.1666 21.4489 25.0701 21.6397 24.8982 21.7803C24.7263 21.921 24.4931 22 24.25 22C24.0069 22 23.7737 21.921 23.6018 21.7803C23.4299 21.6397 23.3333 21.4489 23.3333 21.25V10.75Z" fill="#0A1894"/>
</svg>
