<svg width="24" height="24" viewBox="0 0 24 24" fill="none" xmlns="http://www.w3.org/2000/svg">
<path d="M13.6667 12.127V14.6667H11.1334V12.127H13.6667ZM13.6667 8.32953V10.8603H11.1334V8.32953H13.6667ZM9.86671 8.32953H7.33337V10.8603H9.86671V8.32953ZM9.86671 12.127H7.33337V14.6667H9.86671V12.127Z" fill="url(#paint0_linear_22_71)"/>
<path fill-rule="evenodd" clip-rule="evenodd" d="M2.82322 2.5565C2.4669 2.91282 2.26672 3.39609 2.26672 3.9V19.1C2.26672 19.6039 2.4669 20.0872 2.82322 20.4435C3.17954 20.7998 3.66281 21 4.16672 21H12.0876C11.9529 20.6248 12.0514 20.1892 12.3691 19.9102L12.7388 19.5855C12.6058 19.3353 12.4966 19.0705 12.4143 18.7941H12C11.4477 18.7941 11 18.3464 11 17.7941V17.3235C11 16.7712 11.4477 16.3235 12 16.3235H12.4143C12.4539 16.1907 12.4996 16.0605 12.5513 15.9333H6.06672V7.06287H14.9334V13.5512C15.0605 13.4996 15.1907 13.4539 15.3235 13.4143V13C15.3235 12.4477 15.7712 12 16.3235 12H16.7941C17.3464 12 17.7941 12.4477 17.7941 13V13.4143C18.057 13.4926 18.3094 13.5951 18.5487 13.7194L18.7334 13.5573V6.17113L14.5623 2H4.16672C3.66281 2 3.17954 2.20018 2.82322 2.5565Z" fill="url(#paint1_linear_22_71)"/>
<rect x="15.3235" y="12" width="2.47059" height="2.47059" rx="1" fill="#D74DB9"/>
<rect x="11" y="16.3235" width="2.47059" height="2.47059" rx="1" fill="#0876C6"/>
<rect x="19.6472" y="16.3235" width="2.47059" height="2.47059" rx="1" fill="#D74DB9"/>
<rect x="15.3235" y="20.647" width="2.47059" height="2.47059" rx="1" fill="#0876C6"/>
<rect x="11.6177" y="20.57" width="2.69143" height="2.47059" rx="1" transform="rotate(-41.2876 11.6177 20.57)" fill="#0876C6"/>
<rect x="19.7119" y="22.4429" width="2.69143" height="2.47059" rx="1" transform="rotate(-135.451 19.7119 22.4429)" fill="url(#paint2_linear_22_71)"/>
<rect x="13.5355" y="16.2664" width="2.69143" height="2.47059" rx="1" transform="rotate(-135.451 13.5355 16.2664)" fill="url(#paint3_linear_22_71)"/>
<path d="M20.8824 17.5588C20.8824 19.9466 18.9467 21.8823 16.5589 21.8823C14.1711 21.8823 12.2354 19.9466 12.2354 17.5588C12.2354 15.171 14.1711 13.2353 16.5589 13.2353C18.9467 13.2353 20.8824 15.171 20.8824 17.5588ZM14.3973 17.5588C14.3973 18.7526 15.3651 19.7204 16.5589 19.7204C17.7527 19.7204 18.7204 18.7526 18.7204 17.5588C18.7204 16.365 17.7527 15.3973 16.5589 15.3973C15.3651 15.3973 14.3973 16.365 14.3973 17.5588Z" fill="url(#paint4_linear_22_71)"/>
<rect x="17.7927" y="14.3833" width="2.69143" height="2.47059" rx="1" transform="rotate(-41.2876 17.7927 14.3833)" fill="#D74DB9"/>
<defs>
<linearGradient id="paint0_linear_22_71" x1="6.70004" y1="15.9333" x2="14.9334" y2="7.06667" gradientUnits="userSpaceOnUse">
<stop stop-color="#A157BC"/>
<stop offset="1" stop-color="#1C72C4"/>
</linearGradient>
<linearGradient id="paint1_linear_22_71" x1="16.2001" y1="4.53333" x2="2.26672" y2="20.3667" gradientUnits="userSpaceOnUse">
<stop stop-color="#0876C6"/>
<stop offset="1" stop-color="#D04EB9"/>
</linearGradient>
<linearGradient id="paint2_linear_22_71" x1="20.4721" y1="23.6728" x2="20.4721" y2="23.6728" gradientUnits="userSpaceOnUse">
<stop stop-color="#0876C6"/>
<stop offset="1" stop-color="#D74DB9"/>
</linearGradient>
<linearGradient id="paint3_linear_22_71" x1="14.8924" y1="17.9923" x2="14.8924" y2="17.9923" gradientUnits="userSpaceOnUse">
<stop stop-color="#D74DB9"/>
<stop offset="1" stop-color="#1C72C5"/>
</linearGradient>
<linearGradient id="paint4_linear_22_71" x1="16.5588" y1="17.5588" x2="16.5588" y2="17.5588" gradientUnits="userSpaceOnUse">
<stop stop-color="#0876C7"/>
<stop offset="1" stop-color="#D84DB9"/>
</linearGradient>
</defs>
</svg>
